HIERARCHY
ROOT Hips
{
	OFFSET 0.000000 88.474243 0.000000
	CHANNELS 6 Xposition Yposition Zposition Zrotation Yrotation Xrotation 
	JOINT Hips_Spine
	{
		OFFSET 0.000000 0.000000 0.000000
		CHANNELS 3 Zrotation Yrotation Xrotation
		JOINT Spine
		{
			OFFSET 0.005100 8.711998 -0.691000
			CHANNELS 3 Zrotation Yrotation Xrotation
			JOINT Spine1
			{
				OFFSET -0.009200 8.660301 -1.275000
				CHANNELS 3 Zrotation Yrotation Xrotation
				JOINT Spine2
				{
					OFFSET 0.006300 9.852501 -1.857000
					CHANNELS 3 Zrotation Yrotation Xrotation
					JOINT Spine2_Neck
					{
						OFFSET 0.000000 0.000000 0.000000
						CHANNELS 3 Zrotation Yrotation Xrotation
						JOINT Neck
						{
							OFFSET 0.016300 11.420799 -0.263300
							CHANNELS 3 Zrotation Yrotation Xrotation
							End Site #name: Head
							{
								OFFSET -0.019200 9.262405 2.362500
							}
						}
					}
					JOINT Spine2_LeftShoulder
					{
						OFFSET 0.000000 0.000000 0.000000
						CHANNELS 3 Zrotation Yrotation Xrotation
						JOINT LeftShoulder
						{
							OFFSET 5.616900 6.732201 -0.345700
							CHANNELS 3 Zrotation Yrotation Xrotation
							JOINT LeftArm
							{
								OFFSET 10.664888 -0.183372 -2.440700
								CHANNELS 3 Zrotation Yrotation Xrotation
								JOINT LeftForeArm
								{
									OFFSET 27.459126 0.000000 0.000000
									CHANNELS 3 Zrotation Yrotation Xrotation
									End Site #name: LeftHand
									{
										OFFSET 21.306858 0.000000 0.000000
									}
								}
							}
						}
					}
					JOINT Spine2_RightShoulder
					{
						OFFSET 0.000000 0.000000 0.000000
						CHANNELS 3 Zrotation Yrotation Xrotation
						JOINT RightShoulder
						{
							OFFSET -5.580300 6.737503 -0.344400
							CHANNELS 3 Zrotation Yrotation Xrotation
							JOINT RightArm
							{
								OFFSET -10.679335 -0.188484 -2.383900
								CHANNELS 3 Zrotation Yrotation Xrotation
								JOINT RightForeArm
								{
									OFFSET -27.503529 0.000000 0.000000
									CHANNELS 3 Zrotation Yrotation Xrotation
									End Site #name: RightHand
									{
										OFFSET -21.306808 0.000000 0.000000
									}
								}
							}
						}
					}
				}
			}
		}
	}
	JOINT Hips_LeftUpLeg
	{
		OFFSET 0.000000 0.000000 0.000000
		CHANNELS 3 Zrotation Yrotation Xrotation
		JOINT LeftUpLeg
		{
			OFFSET 6.857700 -6.739601 0.312100
			CHANNELS 3 Zrotation Yrotation Xrotation
			JOINT LeftLeg
			{
				OFFSET -0.367590 -34.731552 -4.572400
				CHANNELS 3 Zrotation Yrotation Xrotation
				End Site #name: LeftFoot
				{
					OFFSET 0.367590 -34.656704 -6.067400
				}
			}
		}
	}
	JOINT Hips_RightUpLeg
	{
		OFFSET 0.000000 0.000000 0.000000
		CHANNELS 3 Zrotation Yrotation Xrotation
		JOINT RightUpLeg
		{
			OFFSET -6.876100 -6.733299 0.301000
			CHANNELS 3 Zrotation Yrotation Xrotation
			JOINT RightLeg
			{
				OFFSET 0.347353 -34.795158 -4.515900
				CHANNELS 3 Zrotation Yrotation Xrotation
				End Site #name: RightFoot
				{
					OFFSET -0.347353 -34.589367 -6.070300
				}
			}
		}
	}
}
MOTION
Frames: 9
Frame Time: 0.041667
0.139640 -0.432261 -0.517520 1.425015 3.025958 -20.829544 -0.000000 -0.000000 0.000000 0.054020 1.198791 7.968001 -0.562087 3.795264 16.642443 0.000000 0.000000 0.000000 -0.651550 3.789129 16.693532 -2.289714 -4.834842 12.871010 -0.524100 3.929421 16.164706 -4.401467 4.641827 -0.118376 -61.126247 -22.091223 31.364579 10.960927 -83.811134 -11.167408 -0.062853 3.957042 16.223801 17.473992 10.624052 4.478920 15.139181 42.477397 -34.957565 -17.198318 79.237513 -25.462071 -0.000000 -0.000000 -0.000000 1.204254 14.627690 -85.975864 -0.374202 2.843122 97.774157 -0.000000 -0.000000 -0.000000 -8.208267 -11.017879 -87.185524 1.505369 -2.145367 87.658921 
0.141952 -0.447544 -0.531451 1.428543 3.019379 -20.837543 -0.000000 -0.000000 0.000000 0.015428 1.201262 8.013845 -0.637996 3.830443 16.789685 0.000000 0.000000 0.000000 -0.716421 3.832271 16.898824 -2.268077 -4.830219 12.892439 -0.589594 3.978847 16.340154 -4.099028 4.779384 -0.144604 -61.642235 -22.239016 31.474084 11.962789 -84.364453 -12.099343 -0.133139 4.001537 16.389625 17.065857 10.632250 4.484209 15.048007 42.724902 -35.558587 -20.453147 80.378398 -28.153792 -0.000000 -0.000000 -0.000000 1.211968 14.628574 -85.960355 -0.374863 2.843666 97.770350 -0.000000 -0.000000 -0.000000 -8.213197 -11.016591 -87.182832 1.510016 -2.144489 87.661838 
0.144124 -0.463050 -0.544875 1.431524 3.014606 -20.844972 -0.000000 -0.000000 0.000000 -0.025797 1.203274 8.064519 -0.717622 3.869412 16.939735 0.000000 0.000000 0.000000 -0.785635 3.877259 17.113127 -2.246695 -4.826234 12.916074 -0.657756 4.031505 16.519559 -3.793903 4.922757 -0.170975 -62.168812 -22.402404 31.577371 13.132179 -84.903592 -13.203840 -0.207814 4.048111 16.559419 16.627697 10.618889 4.479914 15.001216 42.990535 -36.344710 -25.517283 81.451014 -32.525570 -0.000000 -0.000000 -0.000000 1.220338 14.632450 -85.954574 -0.375135 2.845684 97.775295 -0.000000 -0.000000 -0.000000 -8.215596 -11.013413 -87.175345 1.509023 -2.146681 87.667674 
0.146188 -0.478486 -0.557844 1.432907 3.007492 -20.854033 -0.000000 -0.000000 0.000000 -0.067852 1.206865 8.118516 -0.799374 3.908493 17.096730 0.000000 0.000000 0.000000 -0.857908 3.923977 17.336649 -2.230740 -4.823454 12.948778 -0.727791 4.085039 16.705427 -3.484802 5.061811 -0.192807 -62.688653 -22.547852 31.686688 14.485286 -85.417465 -14.490909 -0.283523 4.096366 16.738471 16.207817 10.590802 4.475447 15.060817 43.254212 -37.067810 -33.820076 82.763154 -40.086421 -0.000000 -0.000000 -0.000000 1.227704 14.635631 -85.947946 -0.375529 2.847136 97.778960 -0.000000 -0.000000 -0.000000 -8.221815 -11.009447 -87.170679 1.512927 -2.146444 87.668553 
0.148107 -0.493999 -0.570274 1.431507 3.000732 -20.863345 -0.000000 -0.000000 0.000000 -0.111904 1.212423 8.177994 -0.883067 3.953469 17.258568 0.000000 0.000000 0.000000 -0.931422 3.972860 17.565474 -2.222381 -4.820831 12.982189 -0.800400 4.140320 16.893430 -3.183113 5.193918 -0.213089 -63.222955 -22.694182 31.760177 16.126778 -85.934387 -16.069767 -0.362905 4.147599 16.926960 15.799958 10.575601 4.477063 15.130312 43.566446 -37.774732 -46.476372 83.897061 -51.951151 -0.000000 -0.000000 -0.000000 1.239327 14.646587 -85.937496 -0.378085 2.849284 97.782134 -0.000000 -0.000000 -0.000000 -8.226555 -11.005939 -87.166764 1.513185 -2.147023 87.683059 
0.149944 -0.509511 -0.582375 1.430167 2.994239 -20.873927 -0.000000 -0.000000 0.000000 -0.155046 1.216743 8.238179 -0.963724 3.996666 17.449429 0.000000 0.000000 0.000000 -1.008615 4.023442 17.797054 -2.218166 -4.816754 13.019623 -0.874248 4.198229 17.084383 -2.891875 5.308324 -0.229436 -63.764543 -22.845375 31.845552 18.090173 -86.423261 -17.982604 -0.442604 4.199984 17.122005 15.411383 10.559509 4.482497 15.203473 43.856073 -38.448446 -61.940484 84.668154 -66.684064 -0.000000 -0.000000 -0.000000 1.249110 14.651697 -85.920063 -0.378499 2.851387 97.783678 -0.000000 -0.000000 -0.000000 -8.235653 -11.002833 -87.170083 1.517078 -2.147748 87.684598 
0.151582 -0.525097 -0.594152 1.428095 2.992148 -20.889577 -0.000000 -0.000000 0.000000 -0.200440 1.223668 8.297959 -1.046192 4.039874 17.642542 0.000000 0.000000 0.000000 -1.084531 4.073776 18.025346 -2.222781 -4.813945 13.058193 -0.949774 4.255833 17.274310 -2.630514 5.416889 -0.243868 -64.326732 -23.039132 31.953885 20.329417 -86.867995 -20.177161 -0.521271 4.252215 17.339495 15.039192 10.537262 4.486141 15.309088 44.124057 -39.073377 -72.233923 84.897280 -76.310817 -0.000000 -0.000000 -0.000000 1.260349 14.655237 -85.904568 -0.380680 2.852746 97.784845 -0.000000 -0.000000 -0.000000 -8.241313 -10.995965 -87.158670 1.520194 -2.145832 87.689810 
0.153053 -0.540716 -0.605600 1.426580 2.989550 -20.904435 -0.000000 -0.000000 0.000000 -0.246471 1.230849 8.360976 -1.126264 4.082995 17.835523 0.000000 0.000000 0.000000 -1.157942 4.123583 18.246366 -2.232981 -4.816386 13.098341 -1.023934 4.313262 17.467186 -2.390418 5.522789 -0.257863 -64.900632 -23.220578 32.049843 23.186883 -87.303356 -22.995056 -0.600987 4.302976 17.560824 14.687140 10.511168 4.489254 15.332208 44.348075 -39.674007 -83.073545 84.955502 -86.487619 -0.000000 -0.000000 -0.000000 1.270761 14.657451 -85.894784 -0.382768 2.854856 97.790517 -0.000000 -0.000000 -0.000000 -8.249538 -10.990867 -87.146479 1.524279 -2.144497 87.692622 
0.154244 -0.556328 -0.616803 1.425899 2.983408 -20.919931 -0.000000 -0.000000 0.000000 -0.291045 1.238029 8.425074 -1.205471 4.123952 18.030079 0.000000 0.000000 0.000000 -1.229568 4.171276 18.465377 -2.248283 -4.821371 13.148860 -1.099341 4.366610 17.653278 -2.177633 5.628583 -0.271829 -65.476151 -23.385502 32.155801 26.879532 -87.711759 -26.658716 -0.677273 4.348906 17.783211 14.369962 10.494348 4.497324 15.371686 44.512489 -40.197394 -94.624081 84.793976 -97.275327 -0.000000 -0.000000 -0.000000 1.279450 14.661138 -85.877776 -0.385323 2.856596 97.794087 -0.000000 -0.000000 -0.000000 -8.255031 -10.985423 -87.135893 1.526279 -2.142634 87.694849 
